<?xml version="1.0" encoding="UTF-8"?>
<svg id="Layer_1" data-name="Layer 1" xmlns="http://www.w3.org/2000/svg" width="108.816" height="48.976" viewBox="0 0 108.816 48.976">
  <defs>
    <style>
      .cls-1 {
        fill: #dd1f26;
        stroke-width: 0px;
      }
    </style>
  </defs>
  <path class="cls-1" d="m12.943,48.077L0,24.627,12.539.927c.857-1.62,3.169-.983,3.185.879.129,15.11.259,30.221.388,45.331.016,1.861-2.285,2.544-3.17.941Z"/>
  <path class="cls-1" d="m81.241,14.541c.011.159.041.311.041.474,0,3.232-2.276,5.852-5.083,5.852-1.533,0-2.891-.798-3.823-2.034-1.686,2.244-4.803,3.755-8.379,3.755-3.458,0-6.486-1.413-8.207-3.535-1.132,1.552-2.878,2.568-4.862,2.568-3.415,0-6.184-2.958-6.184-6.606,0-.162.034-.314.045-.474H14.355v19.894h94.46V14.541h-27.574Z"/>
</svg>